<?xml version="1.0" encoding="UTF-8" standalone="no"?>
<!-- Created with Inkscape (http://www.inkscape.org/) -->

<svg
   width="75.024071mm"
   height="75.02417mm"
   viewBox="0 0 75.024071 75.02417"
   version="1.1"
   id="svg5"
   xmlns="http://www.w3.org/2000/svg"
   xmlns:svg="http://www.w3.org/2000/svg">
  <defs
     id="defs2" />
  <g
     id="layer1"
     transform="translate(-98.88418,-130.49714)">
    <circle
       style="fill:#0d6efd;stroke-width:1.76429"
       id="path288"
       cx="136.23892"
       cy="167.85188"
       r="37.354744" />
    <path
       id="circle448"
       style="fill:#6610f2;stroke-width:1.59712"
       d="m 140.09326,137.89081 a 33.815285,33.815285 0 0 0 -33.81551,33.81499 33.815285,33.815285 0 0 0 33.81551,33.81551 33.815285,33.815285 0 0 0 33.81499,-33.81551 33.815285,33.815285 0 0 0 -33.81499,-33.81499 z m 0,2.19573 c 0.34859,0 0.6289,0.28082 0.6289,0.62942 v 13.84308 c 0,0.3486 -0.28031,0.62942 -0.6289,0.62942 -0.3486,0 -0.62942,-0.28082 -0.62942,-0.62942 v -13.84308 c 0,-0.3486 0.28082,-0.62942 0.62942,-0.62942 z m -31.55001,30.83274 h 13.84359 c 0.3486,0 0.62891,0.28082 0.62891,0.62942 0,0.3486 -0.28031,0.62942 -0.62891,0.62942 h -13.84359 c -0.3486,0 -0.62891,-0.28082 -0.62891,-0.62942 0,-0.3486 0.28031,-0.62942 0.62891,-0.62942 z m 49.55253,0 h 13.84308 c 0.3486,0 0.62942,0.28082 0.62942,0.62942 0,0.3486 -0.28082,0.62942 -0.62942,0.62942 h -13.84308 c -0.3486,0 -0.62891,-0.28082 -0.62891,-0.62942 0,-0.3486 0.28031,-0.62942 0.62891,-0.62942 z m -18.00252,17.30437 c 0.34859,0 0.6289,0.28031 0.6289,0.62891 v 13.84359 c 0,0.3486 -0.28031,0.62891 -0.6289,0.62891 -0.3486,0 -0.62942,-0.28031 -0.62942,-0.62891 v -13.84359 c 0,-0.3486 0.28082,-0.62891 0.62942,-0.62891 z" />
  </g>
</svg>
